<svg width="95" height="22" viewBox="0 0 95 22" fill="none" xmlns="http://www.w3.org/2000/svg">
<path d="M7.5 0L9.18386 5.18237H14.6329L10.2245 8.38525L11.9084 13.5676L7.5 10.3647L3.09161 13.5676L4.77547 8.38525L0.367076 5.18237H5.81614L7.5 0Z" fill="#EB9B00"/>
<path d="M26.5 0L28.1839 5.18237H33.6329L29.2245 8.38525L30.9084 13.5676L26.5 10.3647L22.0916 13.5676L23.7755 8.38525L19.3671 5.18237H24.8161L26.5 0Z" fill="#EB9B00"/>
<path d="M45.5 0L47.1839 5.18237H52.6329L48.2245 8.38525L49.9084 13.5676L45.5 10.3647L41.0916 13.5676L42.7755 8.38525L38.3671 5.18237H43.8161L45.5 0Z" fill="#EB9B00"/>
<path d="M64.5 0L66.1839 5.18237H71.6329L67.2245 8.38525L68.9084 13.5676L64.5 10.3647L60.0916 13.5676L61.7755 8.38525L57.3671 5.18237H62.8161L64.5 0Z" fill="#EB9B00"/>
<g filter="url(#filter0_d_351_3927)">
<path d="M83.5 0L85.1839 5.18237H90.6329L86.2245 8.38525L87.9084 13.5676L83.5 10.3647L79.0916 13.5676L80.7755 8.38525L76.3671 5.18237H81.8161L83.5 0Z" fill="#EB9B00"/>
</g>
<defs>
<filter id="filter0_d_351_3927" x="72.3672" y="0" width="22.2656" height="21.5684" filterUnits="userSpaceOnUse" color-interpolation-filters="sRGB">
<feFlood flood-opacity="0" result="BackgroundImageFix"/>
<feColorMatrix in="SourceAlpha" type="matrix" values="0 0 0 0 0 0 0 0 0 0 0 0 0 0 0 0 0 0 127 0" result="hardAlpha"/>
<feOffset dy="4"/>
<feGaussianBlur stdDeviation="2"/>
<feComposite in2="hardAlpha" operator="out"/>
<feColorMatrix type="matrix" values="0 0 0 0 0 0 0 0 0 0 0 0 0 0 0 0 0 0 0.25 0"/>
<feBlend mode="normal" in2="BackgroundImageFix" result="effect1_dropShadow_351_3927"/>
<feBlend mode="normal" in="SourceGraphic" in2="effect1_dropShadow_351_3927" result="shape"/>
</filter>
</defs>
</svg>
